<?xml version="1.0" encoding="utf-8"?>
<!-- Generator: Adobe Illustrator 24.0.0, SVG Export Plug-In . SVG Version: 6.00 Build 0)  -->
<svg version="1.1" id="Layer_1" xmlns="http://www.w3.org/2000/svg" xmlns:xlink="http://www.w3.org/1999/xlink" x="0px" y="0px"
	 viewBox="0 0 512 512" style="enable-background:new 0 0 512 512;" xml:space="preserve">
<style type="text/css">
	.st0{fill:#0093C4;}
	.st1{fill:#00B4D7;}
	.st2{fill:#FFFFFF;}
</style>
<polygon class="st0" points="35.7,434.8 53.8,416.6 108.4,471.1 162.9,416.6 181.1,434.8 108.4,507.5 "/>
<polygon class="st1" points="108.4,471.1 53.8,416.6 43.7,426.7 108.4,491.4 173.1,426.7 162.9,416.6 "/>
<path d="M108.4,512l-77.2-77.2L53.8,412l54.5,54.5l54.5-54.5l22.7,22.7L108.4,512z M40.2,434.8l68.2,68.2l68.2-68.2l-13.6-13.6
	l-54.5,54.5l-54.5-54.5L40.2,434.8z"/>
<rect x="124.4" y="449.2" transform="matrix(0.7071 -0.7071 0.7071 0.7071 -277.0347 235.9721)" class="st2" width="43.9" height="6.4"/>
<polygon class="st0" points="35.7,358.8 53.8,340.7 108.4,395.2 162.9,340.7 181.1,358.8 108.4,431.5 "/>
<polygon class="st1" points="108.4,395.2 53.8,340.7 43.7,350.8 108.4,415.5 173.1,350.8 162.9,340.7 "/>
<path d="M108.4,436.1l-77.2-77.2l22.7-22.7l54.5,54.5l54.5-54.5l22.7,22.7L108.4,436.1z M40.2,358.8l68.2,68.2l68.2-68.2l-13.6-13.6
	l-54.5,54.5l-54.5-54.5L40.2,358.8z"/>
<rect x="124.4" y="373.3" transform="matrix(0.7071 -0.7071 0.7071 0.7071 -223.3558 213.738)" class="st2" width="43.9" height="6.4"/>
</svg>
